<svg width="128" height="128" viewBox="0 0 415 415" fill="none" xmlns="http://www.w3.org/2000/svg">
<circle cx="207.5" cy="207.5" r="206.5" stroke="black" stroke-width="2"/>
<path d="M146.175 297.359C137.525 297.359 129.819 295.55 123.057 291.933C116.294 288.159 110.947 283.048 107.015 276.6C103.241 270.152 101.354 262.839 101.354 254.661V222.106C101.354 213.928 103.32 206.615 107.251 200.167C111.183 193.719 116.53 188.687 123.293 185.069C130.055 181.295 137.683 179.408 146.175 179.408C156.398 179.408 165.598 182.081 173.776 187.428C182.111 192.618 188.638 199.695 193.356 208.66C198.231 217.467 200.669 227.453 200.669 238.619C200.669 249.628 198.231 259.615 193.356 268.579C188.638 277.386 182.111 284.384 173.776 289.574C165.598 294.764 156.398 297.359 146.175 297.359ZM141.929 272.825C148.22 272.825 153.724 271.41 158.442 268.579C163.317 265.591 167.092 261.502 169.765 256.312C172.596 251.122 174.012 245.146 174.012 238.383C174.012 231.621 172.596 225.645 169.765 220.455C167.092 215.265 163.317 211.255 158.442 208.424C153.724 205.436 148.22 203.942 141.929 203.942C135.638 203.942 130.055 205.436 125.18 208.424C120.305 211.255 116.53 215.265 113.857 220.455C111.183 225.645 109.846 231.621 109.846 238.383C109.846 245.146 111.183 251.122 113.857 256.312C116.53 261.502 120.305 265.591 125.18 268.579C130.055 271.41 135.638 272.825 141.929 272.825ZM85.5482 295V125.15H111.497V209.603L107.015 236.968L111.497 264.569V295H85.5482ZM269.806 297.359C259.584 297.359 250.305 294.764 241.97 289.574C233.792 284.384 227.265 277.386 222.39 268.579C217.672 259.615 215.313 249.628 215.313 238.619C215.313 227.453 217.672 217.467 222.39 208.66C227.265 199.695 233.792 192.618 241.97 187.428C250.305 182.081 259.584 179.408 269.806 179.408C278.456 179.408 286.084 181.295 292.689 185.069C299.452 188.687 304.799 193.719 308.73 200.167C312.662 206.615 314.628 213.928 314.628 222.106V254.661C314.628 262.839 312.662 270.152 308.73 276.6C304.956 283.048 299.687 288.159 292.925 291.933C286.162 295.55 278.456 297.359 269.806 297.359ZM274.053 272.825C283.646 272.825 291.352 269.601 297.171 263.153C303.147 256.705 306.135 248.449 306.135 238.383C306.135 231.621 304.799 225.645 302.125 220.455C299.452 215.265 295.677 211.255 290.802 208.424C286.084 205.436 280.501 203.942 274.053 203.942C267.762 203.942 262.179 205.436 257.304 208.424C252.586 211.255 248.811 215.265 245.98 220.455C243.307 225.645 241.97 231.621 241.97 238.383C241.97 245.146 243.307 251.122 245.98 256.312C248.811 261.502 252.586 265.591 257.304 268.579C262.179 271.41 267.762 272.825 274.053 272.825ZM304.484 295V264.569L308.966 236.968L304.484 209.603V181.767H330.433V295H304.484Z" fill="black"/>
</svg>
